<?xml version="1.0" encoding="UTF-8"?>
<svg xmlns="http://www.w3.org/2000/svg" xmlns:xlink="http://www.w3.org/1999/xlink" width="250px" height="px" viewBox="0 0 250 250" version="1.1">
<g id="surface1">
<path style=" stroke:none;fill-rule:nonzero;fill:rgb(0%,43.921569%,69.803922%);fill-opacity:1;" d="M 90.183594 122.277344 C 85.507812 120.78125 84.164062 119.480469 84.164062 118.097656 C 84.164062 116.144531 86.464844 114.992188 89.839844 114.992188 C 91.144531 114.992188 92.0625 115.105469 92.714844 115.261719 L 92.675781 119.132812 L 97.085938 119.210938 L 97.394531 111.464844 C 95.285156 110.964844 92.101562 110.351562 89.417969 110.351562 C 83.207031 110.351562 78.296875 113.304688 78.296875 118.636719 C 78.296875 123.695312 81.710938 125.574219 87.730469 127.453125 C 92.371094 128.910156 92.867188 130.023438 92.867188 131.441406 C 92.867188 133.089844 90.566406 134.316406 87.652344 134.316406 C 84.664062 134.316406 81.328125 133.28125 79.292969 132.4375 C 78.757812 133.628906 77.570312 135.621094 76.765625 136.769531 C 79.792969 138.421875 83.398438 139.339844 87.460938 139.339844 C 93.636719 139.339844 98.886719 136.425781 98.886719 130.597656 C 98.925781 126.035156 96.242188 124.234375 90.183594 122.277344 "/>
<path style=" stroke:none;fill-rule:nonzero;fill:rgb(0%,43.921569%,69.803922%);fill-opacity:1;" d="M 29.101562 110.542969 L 17.0625 110.542969 L 17.0625 114.070312 L 20.09375 114.070312 L 12.578125 135.277344 L 10.160156 135.277344 L 10.160156 138.804688 L 20.246094 138.804688 L 20.246094 135.277344 L 17.867188 135.277344 L 19.25 131.402344 L 30.175781 131.402344 L 31.558594 135.277344 L 29.332031 135.277344 L 29.332031 138.804688 L 40.105469 138.804688 L 40.105469 135.277344 L 37.84375 135.277344 Z M 20.820312 126.992188 L 24.730469 115.949219 L 28.644531 126.992188 Z M 20.820312 126.992188 "/>
<path style=" stroke:none;fill-rule:nonzero;fill:rgb(0%,43.921569%,69.803922%);fill-opacity:1;" d="M 70.128906 115.375 C 68.636719 114.722656 66.984375 114.378906 65.300781 114.378906 C 64.839844 114.378906 64.417969 114.417969 63.996094 114.457031 C 62.5 116.527344 61.578125 119.058594 61.578125 121.777344 C 61.578125 126.957031 64.722656 131.363281 69.210938 133.242188 C 68.097656 134.011719 66.757812 134.472656 65.300781 134.472656 C 61.3125 134.472656 58.089844 131.019531 58.089844 126.800781 C 58.089844 124.960938 58.703125 123.3125 59.699219 121.972656 C 59.699219 120.015625 60.390625 116.488281 61.425781 114.953125 C 56.402344 116.5625 52.835938 121.320312 52.835938 126.800781 C 52.835938 128.988281 53.414062 131.019531 54.371094 132.785156 C 53.183594 134.011719 51.609375 134.738281 50.078125 134.738281 C 48.007812 134.738281 46.550781 133.128906 46.550781 130.714844 L 46.550781 119.632812 L 52.953125 119.632812 L 52.953125 115.222656 L 46.550781 115.222656 L 46.550781 110.46875 L 40.796875 110.46875 L 40.796875 115.222656 L 36.578125 115.222656 L 36.578125 119.632812 L 40.796875 119.632812 L 40.796875 131.289062 C 40.796875 137.269531 44.976562 139.226562 49.003906 139.226562 C 52.378906 139.226562 55.136719 137.613281 56.671875 135.773438 C 58.894531 137.921875 61.964844 139.265625 65.300781 139.265625 C 72.085938 139.265625 77.761719 133.703125 77.761719 126.800781 C 77.761719 121.664062 74.617188 117.253906 70.128906 115.375 M 72.164062 129.179688 C 69.132812 128.296875 66.871094 125.308594 66.871094 121.777344 C 66.871094 120.972656 66.984375 120.167969 67.214844 119.441406 C 70.246094 120.320312 72.507812 123.3125 72.507812 126.839844 C 72.46875 127.644531 72.355469 128.449219 72.164062 129.179688 "/>
<path style=" stroke:none;fill-rule:nonzero;fill:rgb(0%,43.921569%,69.803922%);fill-opacity:1;" d="M 130.867188 122.277344 C 126.1875 120.78125 124.847656 119.480469 124.847656 118.097656 C 124.847656 116.144531 127.148438 114.992188 130.519531 114.992188 C 131.824219 114.992188 132.746094 115.105469 133.398438 115.261719 L 133.359375 119.132812 L 137.769531 119.210938 L 138.074219 111.464844 C 135.964844 110.964844 132.785156 110.351562 130.101562 110.351562 C 123.886719 110.351562 118.980469 113.304688 118.980469 118.636719 C 118.980469 123.695312 122.394531 125.574219 128.414062 127.453125 C 133.050781 128.910156 133.550781 130.023438 133.550781 131.441406 C 133.550781 133.089844 131.25 134.316406 128.335938 134.316406 C 125.34375 134.316406 122.007812 133.320312 119.976562 132.4375 C 119.441406 133.628906 118.25 135.621094 117.445312 136.769531 C 120.476562 138.421875 124.078125 139.339844 128.105469 139.339844 C 134.277344 139.339844 139.53125 136.425781 139.53125 130.597656 C 139.609375 126.035156 136.925781 124.195312 130.867188 122.277344 "/>
<path style=" stroke:none;fill-rule:nonzero;fill:rgb(0%,43.921569%,69.803922%);fill-opacity:1;" d="M 154.371094 114.839844 L 154.371094 118.597656 L 156.097656 118.597656 C 156.328125 118.597656 156.75 118.636719 156.902344 118.828125 C 156.980469 118.941406 157.09375 119.285156 156.671875 120.320312 L 152.53125 130.484375 L 147.585938 118.597656 L 150.652344 118.597656 L 150.652344 114.839844 L 139.761719 114.839844 L 139.761719 118.597656 L 141.027344 118.597656 C 141.601562 118.597656 141.984375 119.324219 142.101562 119.632812 L 149.578125 136.964844 C 148.042969 139.226562 146.355469 140.375 144.058594 141.066406 L 143.671875 141.179688 L 143.671875 144.671875 L 148.199219 144.671875 L 148.3125 144.59375 C 150.882812 143.058594 152.992188 140.414062 154.832031 136.082031 L 161.925781 119.671875 C 162.230469 118.980469 162.652344 118.597656 163.074219 118.597656 L 164.492188 118.597656 L 164.492188 114.839844 Z M 154.371094 114.839844 "/>
<path style=" stroke:none;fill-rule:nonzero;fill:rgb(0%,43.921569%,69.803922%);fill-opacity:1;" d="M 211.3125 136.464844 L 207.746094 132.132812 C 207.859375 132.363281 207.976562 132.59375 208.089844 132.820312 C 206.902344 134.050781 205.328125 134.777344 203.796875 134.777344 C 201.726562 134.777344 200.269531 133.167969 200.269531 130.75 L 200.269531 119.25 L 206.671875 119.25 L 206.671875 114.839844 L 200.230469 114.839844 L 200.230469 110.507812 L 194.480469 110.507812 L 194.480469 114.839844 L 190.261719 114.839844 L 190.261719 119.25 L 194.480469 119.25 L 194.480469 131.328125 C 194.480469 137.308594 198.65625 139.265625 202.683594 139.265625 C 206.058594 139.265625 208.855469 137.652344 210.351562 135.8125 C 210.660156 136.082031 210.964844 136.351562 211.273438 136.617188 Z M 211.3125 136.464844 "/>
<path style=" stroke:none;fill-rule:nonzero;fill:rgb(0%,43.921569%,69.803922%);fill-opacity:1;" d="M 218.019531 114.378906 C 211.425781 114.378906 206.824219 119.554688 206.824219 126.957031 C 206.824219 134.699219 211.15625 139.265625 218.441406 139.265625 C 223.121094 139.265625 225.765625 137.84375 227.300781 136.769531 L 227.570312 136.578125 L 227.570312 132.476562 L 225.230469 132.476562 L 225.039062 132.628906 C 223.429688 133.933594 221.394531 134.625 219.058594 134.625 C 214.992188 134.625 213.074219 132.785156 212.730469 128.414062 L 228.222656 128.414062 L 228.222656 127.761719 C 228.222656 127.722656 228.222656 127.570312 228.222656 127.414062 C 228.222656 127.070312 228.257812 126.570312 228.257812 126.1875 C 228.296875 118.558594 224.65625 114.378906 218.019531 114.378906 M 212.921875 124.15625 C 213.457031 120.550781 215.144531 118.75 218.019531 118.75 C 220.128906 118.75 222.316406 119.402344 222.546875 124.15625 Z M 212.921875 124.15625 "/>
<path style=" stroke:none;fill-rule:nonzero;fill:rgb(0%,43.921569%,69.803922%);fill-opacity:1;" d="M 229.101562 135.429688 L 230.675781 135.429688 C 231.171875 135.429688 231.671875 134.855469 231.671875 134.433594 L 231.671875 115.070312 C 231.671875 114.609375 231.136719 113.996094 230.675781 113.996094 L 228.988281 113.996094 L 228.988281 110.507812 L 236.578125 110.507812 C 237.269531 110.507812 237.578125 111.003906 237.578125 111.886719 L 237.578125 134.433594 C 237.578125 134.929688 238.152344 135.429688 238.574219 135.429688 L 240.222656 135.429688 L 240.222656 138.765625 L 229.0625 138.765625 L 229.0625 135.429688 Z M 229.101562 135.429688 "/>
<path style=" stroke:none;fill-rule:nonzero;fill:rgb(0%,43.921569%,69.803922%);fill-opacity:1;" d="M 166.21875 135.429688 L 167.792969 135.429688 C 168.328125 135.429688 168.941406 134.777344 168.941406 134.277344 L 168.941406 119.785156 C 168.941406 119.285156 168.367188 118.558594 167.792969 118.558594 L 166.027344 118.558594 L 166.027344 114.800781 L 173.582031 114.800781 C 174.347656 114.800781 174.808594 115.453125 174.960938 117.90625 C 177.1875 115.835938 180.214844 114.457031 183.820312 114.457031 C 187.15625 114.457031 189.457031 115.757812 189.457031 120.398438 L 189.457031 134.277344 C 189.457031 134.816406 190.03125 135.429688 190.605469 135.429688 L 191.871094 135.429688 L 191.871094 138.804688 L 180.636719 138.804688 L 180.636719 135.429688 L 183.359375 135.429688 L 183.359375 122.699219 C 183.359375 120.320312 182.4375 119.671875 180.214844 119.671875 C 178.296875 119.671875 176.535156 120.09375 175 120.589844 L 175 135.46875 L 177.761719 135.46875 L 177.761719 138.84375 L 166.21875 138.84375 Z M 166.21875 135.429688 "/>
<path style="fill:none;stroke-width:1.5717;stroke-linecap:butt;stroke-linejoin:miter;stroke:rgb(13.72549%,9.411765%,8.235294%);stroke-opacity:1;stroke-miterlimit:4;" d="M 282.896687 273.5955 L 282.896687 377.30425 " transform="matrix(0.383436,0,0,0.383436,0,0)"/>
</g>
</svg>
