<?xml version="1.0" encoding="UTF-8"?>
<svg xmlns="http://www.w3.org/2000/svg" xmlns:xlink="http://www.w3.org/1999/xlink" width="250px" height="px" viewBox="0 0 250 250" version="1.1">
<g id="surface1">
<path style=" stroke:none;fill-rule:nonzero;fill:rgb(2.352941%,20.784314%,47.843137%);fill-opacity:1;" d="M 9.242188 107.859375 C 7.398438 113.648438 11.964844 120.78125 20.820312 127.261719 C 14.1875 121.550781 10.964844 115.566406 12.652344 110.582031 C 16.066406 100.152344 39.300781 97.429688 64.53125 105.214844 C 71.472656 107.363281 77.835938 109.203125 83.398438 112.15625 C 77.148438 108.4375 69.554688 105.367188 61.15625 102.761719 C 35.851562 95.015625 12.652344 97.429688 9.242188 107.859375 "/>
<path style=" stroke:none;fill-rule:nonzero;fill:rgb(0%,57.254902%,62.352941%);fill-opacity:1;" d="M 37.308594 132.246094 C 28.027344 126.992188 22.738281 120.207031 24.15625 114.648438 C 25.191406 110.773438 29.410156 107.976562 35.507812 106.941406 C 27.800781 107.59375 21.855469 110.542969 20.628906 115.03125 C 19.132812 120.859375 24.921875 127.875 34.855469 133.320312 L 37.308594 132.246094 "/>
<path style=" stroke:none;fill-rule:nonzero;fill:rgb(94.509804%,36.470588%,13.333333%);fill-opacity:1;" d="M 36.386719 118.328125 C 38 113.421875 47.277344 111.65625 61.042969 116.027344 C 67.253906 117.984375 72.546875 120.707031 75.921875 123.65625 C 72.546875 121.164062 67.945312 118.902344 62.613281 117.292969 C 50.613281 113.648438 39.570312 114.648438 37.960938 119.59375 C 37.191406 121.972656 38.726562 124.808594 41.832031 127.53125 C 37.691406 124.425781 35.507812 121.050781 36.386719 118.328125 "/>
<path style=" stroke:none;fill-rule:nonzero;fill:rgb(100%,82.352941%,0%);fill-opacity:1;" d="M 66.488281 128.144531 C 65.261719 131.171875 58.855469 130.445312 53.335938 128.566406 C 50.5 127.570312 48.121094 126.1875 46.625 124.808594 C 48.121094 126.035156 50.691406 126.992188 52.722656 127.644531 C 58.207031 129.449219 63.726562 128.871094 64.53125 127.1875 C 66.105469 123.925781 61.003906 121.972656 58.207031 121.164062 C 60.46875 121.625 61.503906 122.164062 63.074219 122.851562 C 66.371094 124.730469 67.101562 126.6875 66.488281 128.144531 "/>
<path style=" stroke:none;fill-rule:nonzero;fill:rgb(2.352941%,20.784314%,47.843137%);fill-opacity:1;" d="M 27.109375 137.730469 C 27.570312 138.152344 28.222656 138.382812 29.179688 138.382812 C 30.445312 138.382812 31.480469 137.84375 31.480469 137.15625 C 31.480469 135.890625 28.066406 134.011719 22.316406 134.011719 C 14.339844 134.011719 9.738281 137.5 9.738281 141.757812 C 9.738281 145.859375 13.6875 149.691406 22.46875 149.691406 C 28.144531 149.691406 31.136719 147.851562 31.136719 146.972656 C 31.136719 146.550781 30.558594 146.28125 29.871094 146.28125 C 29.410156 146.28125 29.21875 146.355469 28.414062 146.703125 C 27.761719 146.933594 26.148438 147.585938 23.734375 147.585938 C 19.171875 147.585938 15.335938 145.285156 15.335938 141.105469 C 15.335938 137.691406 18.289062 135.773438 21.894531 135.773438 C 24.808594 135.773438 25.996094 136.808594 27.109375 137.730469 "/>
<path style=" stroke:none;fill-rule:nonzero;fill:rgb(2.352941%,20.784314%,47.843137%);fill-opacity:1;" d="M 57.785156 141.488281 C 57.476562 137.5 53.222656 134.011719 45.4375 134.011719 C 37.5 134.011719 32.9375 137.5 32.9375 141.871094 C 32.9375 147.007812 38.726562 149.691406 45.398438 149.691406 C 52.875 149.769531 58.128906 146.242188 57.785156 141.488281 M 52.300781 141.5625 C 52.378906 143.019531 51.992188 144.707031 50.804688 145.898438 C 49.347656 147.277344 47.199219 147.738281 45.476562 147.738281 C 43.980469 147.738281 39.914062 147.316406 38.804688 143.863281 C 38.613281 143.289062 38.496094 142.601562 38.496094 141.71875 C 38.496094 140.566406 38.6875 137.539062 42.484375 136.351562 C 43.367188 136.042969 44.402344 135.929688 45.4375 135.929688 C 46.203125 135.929688 48.734375 136.003906 50.652344 137.613281 C 52.070312 138.84375 52.300781 140.414062 52.300781 141.5625 Z M 52.300781 141.5625 "/>
<path style=" stroke:none;fill-rule:nonzero;fill:rgb(2.352941%,20.784314%,47.843137%);fill-opacity:1;" d="M 66.257812 134.777344 C 65.835938 134.433594 65.683594 134.355469 64.992188 134.355469 L 62.039062 134.355469 C 61.503906 134.355469 61.15625 134.433594 61.15625 134.816406 L 61.15625 149.003906 C 61.15625 149.425781 61.386719 149.425781 62.039062 149.425781 L 64.457031 149.425781 C 65.105469 149.425781 65.222656 149.308594 65.222656 148.964844 L 65.222656 138.648438 L 78.71875 148.964844 C 79.140625 149.308594 79.257812 149.386719 79.753906 149.425781 L 81.941406 149.425781 C 82.515625 149.425781 82.746094 149.347656 82.746094 149.003906 L 82.746094 134.777344 C 82.746094 134.433594 82.554688 134.316406 81.980469 134.355469 L 79.5625 134.355469 C 78.910156 134.355469 78.796875 134.472656 78.796875 134.777344 L 78.796875 144.285156 L 66.257812 134.777344 "/>
<path style=" stroke:none;fill-rule:nonzero;fill:rgb(2.352941%,20.784314%,47.843137%);fill-opacity:1;" d="M 103.644531 137.730469 C 104.101562 138.152344 104.753906 138.382812 105.714844 138.382812 C 106.980469 138.382812 108.015625 137.84375 108.015625 137.15625 C 108.015625 135.890625 104.601562 134.011719 98.851562 134.011719 C 90.796875 134.011719 86.273438 137.5 86.273438 141.757812 C 86.273438 145.859375 90.222656 149.691406 98.964844 149.691406 C 104.640625 149.691406 107.628906 147.851562 107.628906 146.972656 C 107.628906 146.550781 107.054688 146.28125 106.363281 146.28125 C 105.90625 146.28125 105.714844 146.355469 104.90625 146.703125 C 104.257812 146.933594 102.644531 147.585938 100.230469 147.585938 C 95.667969 147.585938 91.832031 145.285156 91.832031 141.105469 C 91.832031 137.691406 94.785156 135.773438 98.390625 135.773438 C 101.34375 135.773438 102.53125 136.808594 103.644531 137.730469 "/>
<path style=" stroke:none;fill-rule:nonzero;fill:rgb(2.352941%,20.784314%,47.843137%);fill-opacity:1;" d="M 125.421875 142.5625 C 126.074219 142.5625 126.304688 142.484375 126.304688 142.140625 L 126.304688 141.105469 C 126.304688 140.757812 126.074219 140.683594 125.5 140.683594 L 117.675781 140.683594 L 117.675781 136.273438 L 126.917969 136.273438 C 127.570312 136.273438 127.835938 136.195312 127.800781 135.8125 L 127.800781 134.777344 C 127.875 134.355469 127.453125 134.355469 126.917969 134.355469 L 113.382812 134.355469 C 112.691406 134.355469 112.460938 134.472656 112.460938 134.929688 L 112.460938 148.886719 C 112.460938 149.347656 112.769531 149.347656 113.382812 149.347656 L 126.917969 149.347656 C 127.570312 149.347656 127.722656 149.269531 127.800781 149.042969 L 127.800781 147.8125 C 127.800781 147.394531 127.492188 147.394531 126.917969 147.394531 L 117.636719 147.394531 L 117.636719 142.484375 L 125.421875 142.484375 "/>
<path style=" stroke:none;fill-rule:nonzero;fill:rgb(2.352941%,20.784314%,47.843137%);fill-opacity:1;" d="M 137.269531 134.777344 C 136.847656 134.433594 136.695312 134.355469 136.003906 134.355469 L 133.128906 134.355469 C 132.59375 134.355469 132.246094 134.433594 132.246094 134.816406 L 132.246094 149.003906 C 132.246094 149.425781 132.476562 149.425781 133.128906 149.425781 L 135.542969 149.425781 C 136.195312 149.425781 136.3125 149.308594 136.3125 148.964844 L 136.3125 138.648438 L 149.730469 148.964844 C 150.152344 149.308594 150.269531 149.386719 150.765625 149.425781 L 152.953125 149.425781 C 153.527344 149.425781 153.757812 149.347656 153.757812 149.003906 L 153.757812 134.777344 C 153.757812 134.433594 153.566406 134.316406 152.992188 134.355469 L 150.574219 134.355469 C 149.921875 134.355469 149.808594 134.472656 149.808594 134.777344 L 149.808594 144.285156 L 137.269531 134.777344 "/>
<path style=" stroke:none;fill-rule:nonzero;fill:rgb(2.352941%,20.784314%,47.843137%);fill-opacity:1;" d="M 175.152344 136.3125 C 175.84375 136.3125 176.035156 136.195312 176.035156 135.851562 L 176.035156 134.816406 C 176.035156 134.472656 175.730469 134.394531 175.152344 134.394531 L 158.015625 134.394531 C 157.4375 134.394531 157.132812 134.472656 157.132812 134.855469 L 157.132812 135.851562 C 157.132812 136.195312 157.324219 136.3125 158.015625 136.3125 L 163.917969 136.3125 L 163.917969 148.925781 C 163.917969 149.347656 164.148438 149.386719 164.839844 149.464844 L 168.367188 149.464844 C 169.019531 149.464844 169.171875 149.269531 169.171875 148.925781 L 169.171875 136.3125 L 175.152344 136.3125 "/>
<path style=" stroke:none;fill-rule:nonzero;fill:rgb(2.352941%,20.784314%,47.843137%);fill-opacity:1;" d="M 179.292969 148.964844 C 179.292969 149.386719 179.601562 149.425781 180.175781 149.425781 L 183.589844 149.425781 C 184.355469 149.425781 184.472656 149.308594 184.472656 148.886719 L 184.472656 143.519531 C 184.472656 143.328125 184.472656 142.945312 185.277344 142.945312 C 186.042969 142.945312 186.503906 143.289062 186.65625 143.519531 L 192.484375 148.964844 C 192.90625 149.308594 192.945312 149.386719 193.75 149.386719 L 197.699219 149.386719 C 198.007812 149.386719 198.464844 149.386719 198.464844 149.078125 C 198.464844 148.964844 198.273438 148.773438 198.160156 148.65625 L 190.875 142.40625 C 193.597656 141.949219 196.972656 140.722656 196.972656 138.34375 C 196.972656 137.117188 196.164062 135.964844 194.441406 135.199219 C 192.140625 134.164062 188.648438 134.085938 186.386719 134.085938 C 183.855469 134.085938 180.828125 134.277344 179.945312 134.433594 C 179.410156 134.546875 179.292969 134.664062 179.292969 135.121094 L 179.292969 148.964844 M 184.472656 135.929688 C 184.894531 135.929688 185.390625 135.851562 186.195312 135.851562 C 187.691406 135.851562 191.757812 135.851562 191.757812 138.726562 C 191.757812 140.683594 189.339844 141.449219 187 141.601562 C 186.351562 141.679688 185.890625 141.679688 184.472656 141.601562 Z M 184.472656 135.929688 "/>
<path style=" stroke:none;fill-rule:nonzero;fill:rgb(2.352941%,20.784314%,47.843137%);fill-opacity:1;" d="M 207.171875 134.855469 C 207.171875 134.433594 206.941406 134.394531 206.363281 134.394531 L 202.644531 134.394531 C 201.957031 134.394531 201.839844 134.585938 201.839844 134.855469 L 201.839844 148.964844 C 201.839844 149.386719 202.148438 149.425781 202.722656 149.425781 L 206.363281 149.425781 C 206.902344 149.425781 207.246094 149.347656 207.246094 148.964844 L 207.246094 134.855469 "/>
<path style=" stroke:none;fill-rule:nonzero;fill:rgb(2.352941%,20.784314%,47.843137%);fill-opacity:1;" d="M 225.691406 148.964844 C 226.113281 149.386719 226.226562 149.386719 226.957031 149.386719 L 230.714844 149.386719 C 231.019531 149.386719 231.480469 149.386719 231.480469 149.078125 C 231.480469 148.964844 231.363281 148.851562 231.25 148.734375 L 223.503906 141.144531 L 230.0625 135.007812 C 230.175781 134.894531 230.292969 134.777344 230.292969 134.664062 C 230.292969 134.355469 229.832031 134.355469 229.601562 134.355469 L 226.957031 134.355469 C 226.265625 134.355469 226.1875 134.355469 225.730469 134.777344 L 221.320312 138.957031 L 217.023438 134.777344 C 216.601562 134.433594 216.488281 134.355469 215.683594 134.355469 L 212.15625 134.355469 C 211.925781 134.355469 212.039062 134.355469 212.039062 134.664062 C 212.039062 134.738281 212.117188 134.855469 212.230469 134.96875 L 218.328125 141.757812 L 211.386719 148.8125 C 211.082031 149.042969 211.042969 149.15625 211.042969 149.234375 C 211.042969 149.464844 211.578125 149.464844 211.847656 149.464844 L 213.917969 149.464844 C 214.570312 149.464844 214.6875 149.386719 215.070312 149.042969 L 220.515625 144.019531 L 225.691406 148.964844 "/>
<path style=" stroke:none;fill-rule:nonzero;fill:rgb(75.686275%,84.705882%,18.431373%);fill-opacity:1;" d="M 97.738281 130.023438 C 92.945312 122.507812 82.859375 114.492188 68.328125 109.664062 C 55.636719 105.367188 41.105469 103.183594 31.75 103.835938 C 40.722656 104.140625 50.691406 105.558594 62.882812 109.394531 C 78.296875 114.1875 88.878906 122.46875 93.75 130.253906 C 93.75 130.253906 94.671875 130.175781 95.550781 130.136719 C 96.855469 129.90625 97.738281 130.023438 97.738281 130.023438 "/>
<path style=" stroke:none;fill-rule:nonzero;fill:rgb(2.352941%,20.784314%,47.843137%);fill-opacity:1;" d="M 232.746094 130.789062 L 231.519531 130.789062 L 231.519531 130.328125 L 234.546875 130.328125 L 234.546875 130.789062 L 233.28125 130.789062 L 233.28125 134.394531 L 232.746094 134.394531 Z M 232.746094 130.789062 "/>
<path style=" stroke:none;fill-rule:nonzero;fill:rgb(2.352941%,20.784314%,47.843137%);fill-opacity:1;" d="M 238.34375 132.59375 C 238.265625 132.015625 238.265625 131.363281 238.265625 130.867188 C 238.152344 131.328125 237.960938 131.863281 237.730469 132.4375 L 237.039062 134.394531 L 236.617188 134.394531 L 235.964844 132.476562 C 235.773438 131.902344 235.621094 131.363281 235.507812 130.90625 C 235.507812 131.441406 235.429688 132.054688 235.429688 132.707031 L 235.3125 134.433594 L 234.777344 134.433594 L 235.085938 130.367188 L 235.734375 130.367188 L 236.425781 132.324219 C 236.617188 132.859375 236.734375 133.242188 236.847656 133.703125 C 236.964844 133.28125 237.078125 132.820312 237.269531 132.324219 L 237.960938 130.367188 L 238.613281 130.367188 L 238.84375 134.433594 L 238.304688 134.433594 Z M 238.34375 132.59375 "/>
</g>
</svg>
