<?xml version="1.0" encoding="UTF-8"?>
<svg xmlns="http://www.w3.org/2000/svg" xmlns:xlink="http://www.w3.org/1999/xlink" width="250px" height="px" viewBox="0 0 250 250" version="1.1">
<g id="surface1">
<path style=" stroke:none;fill-rule:nonzero;fill:rgb(0%,0%,0%);fill-opacity:1;" d="M 82.554688 112.578125 L 97.585938 112.578125 L 97.585938 115.875 L 86.386719 115.875 L 86.386719 121.585938 L 96.203125 121.585938 L 96.203125 124.691406 L 86.386719 124.691406 L 86.386719 134.316406 L 82.554688 134.316406 Z M 82.554688 112.578125 "/>
<path style=" stroke:none;fill-rule:nonzero;fill:rgb(0%,0%,0%);fill-opacity:1;" d="M 112.652344 134.316406 L 109.242188 134.316406 L 109.242188 132.132812 L 109.164062 132.132812 C 108.320312 133.703125 106.441406 134.738281 104.679688 134.738281 C 100.574219 134.738281 98.8125 132.667969 98.8125 128.566406 L 98.8125 118.597656 L 102.261719 118.597656 L 102.261719 128.257812 C 102.261719 131.019531 103.375 132.015625 105.292969 132.015625 C 108.167969 132.015625 109.164062 130.175781 109.164062 127.722656 L 109.164062 118.597656 L 112.652344 118.597656 L 112.652344 134.316406 "/>
<path style=" stroke:none;fill-rule:nonzero;fill:rgb(0%,0%,0%);fill-opacity:1;" d="M 116.296875 118.597656 L 119.785156 118.597656 L 119.785156 135.734375 C 119.785156 138.878906 118.519531 140.644531 115.300781 140.644531 C 114.648438 140.644531 114.1875 140.566406 113.726562 140.527344 L 113.726562 137.769531 C 114.1875 137.84375 114.570312 137.882812 114.914062 137.882812 C 116.179688 137.882812 116.296875 137.117188 116.296875 135.582031 Z M 119.785156 115.875 L 116.296875 115.875 L 116.296875 112.578125 L 119.785156 112.578125 Z M 119.785156 115.875 "/>
<path style=" stroke:none;fill-rule:nonzero;fill:rgb(0%,0%,0%);fill-opacity:1;" d="M 127.148438 134.316406 L 123.65625 134.316406 L 123.65625 118.558594 L 127.148438 118.558594 Z M 127.148438 115.875 L 123.65625 115.875 L 123.65625 112.578125 L 127.148438 112.578125 Z M 127.148438 115.875 "/>
<path style=" stroke:none;fill-rule:nonzero;fill:rgb(0%,0%,0%);fill-opacity:1;" d="M 139.339844 112.578125 L 154.984375 112.578125 L 154.984375 115.875 L 143.136719 115.875 L 143.136719 121.585938 L 154.101562 121.585938 L 154.101562 124.691406 L 143.136719 124.691406 L 143.136719 131.058594 L 155.214844 131.058594 L 155.214844 134.316406 L 139.339844 134.316406 Z M 139.339844 112.578125 "/>
<path style=" stroke:none;fill-rule:nonzero;fill:rgb(0%,0%,0%);fill-opacity:1;" d="M 157.554688 112.578125 L 161.042969 112.578125 L 161.042969 134.316406 L 157.554688 134.316406 Z M 157.554688 112.578125 "/>
<path style=" stroke:none;fill-rule:nonzero;fill:rgb(0%,0%,0%);fill-opacity:1;" d="M 166.449219 127.378906 C 166.449219 129.832031 167.792969 132.015625 170.667969 132.015625 C 172.660156 132.015625 173.886719 131.136719 174.5 129.410156 L 177.800781 129.410156 C 177.03125 132.859375 174.117188 134.777344 170.667969 134.777344 C 165.722656 134.777344 162.960938 131.328125 162.960938 126.496094 C 162.960938 122.007812 165.875 118.175781 170.589844 118.175781 C 175.535156 118.175781 178.605469 122.660156 178.027344 127.378906 Z M 174.578125 125.078125 C 174.464844 122.890625 172.96875 120.898438 170.628906 120.898438 C 168.214844 120.898438 166.5625 122.738281 166.488281 125.078125 L 174.578125 125.078125 "/>
<path style=" stroke:none;fill-rule:nonzero;fill:rgb(0%,0%,0%);fill-opacity:1;" d="M 191.105469 123.886719 C 190.835938 121.972656 189.417969 120.9375 187.5 120.9375 C 185.699219 120.9375 183.167969 121.894531 183.167969 126.648438 C 183.167969 129.257812 184.316406 132.015625 187.347656 132.015625 C 189.339844 132.015625 190.757812 130.675781 191.105469 128.414062 L 194.59375 128.414062 C 193.941406 132.476562 191.410156 134.738281 187.386719 134.738281 C 182.4375 134.738281 179.753906 131.25 179.753906 126.609375 C 179.753906 121.855469 182.324219 118.136719 187.5 118.136719 C 191.144531 118.136719 194.25 119.976562 194.59375 123.851562 L 191.105469 123.851562 "/>
<path style=" stroke:none;fill-rule:nonzero;fill:rgb(0%,0%,0%);fill-opacity:1;" d="M 195.476562 118.597656 L 198.082031 118.597656 L 198.082031 113.878906 L 201.535156 113.878906 L 201.535156 118.597656 L 204.679688 118.597656 L 204.679688 121.164062 L 201.535156 121.164062 L 201.535156 129.601562 C 201.535156 131.019531 201.648438 131.75 203.222656 131.75 C 203.71875 131.75 204.179688 131.75 204.679688 131.632812 L 204.679688 134.316406 C 203.910156 134.394531 203.183594 134.507812 202.414062 134.507812 C 198.8125 134.507812 198.121094 133.089844 198.042969 130.484375 L 198.042969 121.203125 L 195.4375 121.203125 L 195.4375 118.597656 "/>
<path style=" stroke:none;fill-rule:nonzero;fill:rgb(0%,0%,0%);fill-opacity:1;" d="M 221.128906 134.316406 L 217.636719 134.316406 L 217.636719 118.558594 L 221.128906 118.558594 Z M 221.128906 115.875 L 217.636719 115.875 L 217.636719 112.578125 L 221.128906 112.578125 Z M 221.128906 115.875 "/>
<path style=" stroke:none;fill-rule:nonzero;fill:rgb(0%,0%,0%);fill-opacity:1;" d="M 234.394531 123.886719 C 234.125 121.972656 232.707031 120.9375 230.789062 120.9375 C 228.988281 120.9375 226.457031 121.894531 226.457031 126.648438 C 226.457031 129.257812 227.605469 132.015625 230.636719 132.015625 C 232.628906 132.015625 234.050781 130.675781 234.394531 128.414062 L 237.84375 128.414062 C 237.191406 132.476562 234.664062 134.738281 230.636719 134.738281 C 225.691406 134.738281 223.007812 131.25 223.007812 126.609375 C 223.007812 121.855469 225.574219 118.136719 230.75 118.136719 C 234.394531 118.136719 237.5 119.976562 237.84375 123.851562 L 234.394531 123.851562 "/>
<path style=" stroke:none;fill-rule:nonzero;fill:rgb(0%,0%,0%);fill-opacity:1;" d="M 215.875 118.25 C 215.644531 118.214844 215.375 118.175781 214.839844 118.175781 C 212.691406 118.175781 210.621094 119.976562 210.238281 121.664062 L 210.160156 121.664062 L 210.160156 118.636719 L 206.902344 118.636719 L 206.902344 134.355469 L 210.390625 134.355469 L 210.390625 126.878906 C 210.390625 123.390625 212.269531 121.472656 214.648438 121.472656 C 215.03125 121.472656 215.453125 121.550781 215.875 121.585938 L 215.875 118.25 "/>
<path style=" stroke:none;fill-rule:nonzero;fill:rgb(4.313725%,25.490196%,60%);fill-opacity:1;" d="M 66.296875 107.898438 C 62.84375 104.984375 58.28125 103.871094 53.449219 104.714844 C 49.117188 105.484375 45.128906 107.785156 42.0625 110.964844 L 43.25 105.328125 L 20.515625 105.328125 C 17.636719 105.328125 15.03125 107.476562 14.457031 110.3125 C 13.496094 114.722656 7.820312 141.5625 7.820312 141.5625 L 18.980469 141.5625 L 21.933594 127.761719 L 35.660156 127.761719 C 36.003906 132.207031 37.882812 136.042969 41.066406 138.726562 C 44.515625 141.640625 49.078125 142.753906 53.910156 141.910156 C 57.554688 141.257812 61.042969 139.53125 64.035156 136.886719 C 66.949219 134.316406 69.171875 131.019531 70.515625 127.414062 L 70.589844 127.1875 L 67.984375 127.1875 L 67.945312 127.300781 C 65.375 133.628906 59.699219 138.421875 53.488281 139.492188 C 49.386719 140.222656 45.550781 139.265625 42.636719 136.847656 C 39.6875 134.355469 38.035156 130.597656 38.035156 126.265625 C 38.035156 117.253906 45.167969 108.628906 53.910156 107.09375 C 58.015625 106.363281 61.847656 107.324219 64.761719 109.738281 C 67.445312 112 69.058594 115.300781 69.324219 119.132812 L 43.097656 119.132812 L 42.5625 121.742188 L 71.742188 121.742188 L 71.742188 121.550781 C 71.777344 120.972656 71.777344 120.550781 71.777344 120.285156 C 71.742188 115.300781 69.824219 110.851562 66.296875 107.898438 M 24.386719 116.105469 C 24.578125 115.261719 25.34375 114.609375 26.1875 114.609375 L 39.109375 114.609375 C 38.191406 116.027344 37.421875 117.5625 36.847656 119.132812 L 23.734375 119.132812 Z M 24.386719 116.105469 "/>
</g>
</svg>
